<svg width="57" height="57" viewBox="0 0 57 57" fill="none" xmlns="http://www.w3.org/2000/svg">
<path fill-rule="evenodd" clip-rule="evenodd" d="M28.5 0C12.7602 0 0 12.7602 0 28.5C0 44.2398 12.7602 57 28.5 57C44.2398 57 57 44.2398 57 28.5C57 12.7602 44.2398 0 28.5 0ZM40.8535 23.6809C41.0809 23.4209 41.2541 23.118 41.3628 22.7901C41.4715 22.4621 41.5135 22.1158 41.4863 21.7714C41.4592 21.427 41.3634 21.0915 41.2047 20.7846C41.046 20.4777 40.8275 20.2057 40.5621 19.9846C40.2967 19.7634 39.9897 19.5975 39.6593 19.4968C39.3288 19.396 38.9816 19.3623 38.6379 19.3977C38.2943 19.4331 37.9612 19.5369 37.6582 19.7029C37.3552 19.869 37.0886 20.0939 36.8738 20.3645L25.7329 33.731L19.9681 27.9637C19.4795 27.4917 18.825 27.2306 18.1457 27.2365C17.4664 27.2424 16.8165 27.5149 16.3362 27.9952C15.8558 28.4756 15.5833 29.1255 15.5774 29.8048C15.5715 30.4841 15.8326 31.1386 16.3046 31.6272L24.0773 39.4C24.3319 39.6544 24.6367 39.853 24.9723 39.9831C25.3078 40.1132 25.6668 40.1719 26.0264 40.1556C26.3859 40.1393 26.7381 40.0482 27.0605 39.8882C27.3829 39.7282 27.6684 39.5028 27.8989 39.2264L40.8535 23.6809Z" fill="#464646"/>
</svg>
