<svg width="58" height="58" viewBox="0 0 58 58" fill="none" xmlns="http://www.w3.org/2000/svg">
<path fill-rule="evenodd" clip-rule="evenodd" d="M24.046 0.348234C26.999 -0.116078 30.0064 -0.116078 32.9594 0.348234C33.306 0.402737 33.6386 0.524987 33.938 0.708004C34.2374 0.89102 34.4978 1.13122 34.7044 1.41489C34.911 1.69856 35.0597 2.02014 35.142 2.36127C35.2243 2.70241 35.2386 3.05641 35.1841 3.40308C35.1296 3.74974 35.0074 4.08228 34.8244 4.3817C34.6414 4.68112 34.4012 4.94156 34.1175 5.14815C33.8338 5.35474 33.5122 5.50343 33.1711 5.58574C32.83 5.66805 32.476 5.68236 32.1293 5.62786C29.7263 5.25003 27.279 5.25003 24.876 5.62786C24.1759 5.73793 23.4608 5.56537 22.8879 5.14815C22.315 4.73092 21.9313 4.1032 21.8212 3.40308C21.7111 2.70296 21.8837 1.98778 22.3009 1.41489C22.7181 0.841994 23.3459 0.458307 24.046 0.348234ZM15.4817 6.03398C15.8979 6.60672 16.0698 7.32122 15.9596 8.02057C15.8494 8.71992 15.4661 9.34694 14.8939 9.76392C12.9266 11.1957 11.1957 12.9266 9.76392 14.8939C9.3396 15.4472 8.71583 15.8126 8.02577 15.9123C7.33572 16.012 6.63403 15.8379 6.07051 15.4274C5.50698 15.0168 5.12626 14.4023 5.00961 13.7149C4.89296 13.0275 5.04963 12.3217 5.44617 11.7482C7.20496 9.33039 9.33139 7.20277 11.7482 5.44261C12.0322 5.23616 12.354 5.08769 12.6953 5.00568C13.0367 4.92367 13.3908 4.90973 13.7375 4.96465C14.0843 5.01957 14.4168 5.14227 14.716 5.32576C15.0153 5.50924 15.2755 5.7499 15.4817 6.03398ZM41.5236 6.03398C41.7301 5.75018 41.9905 5.50983 42.2899 5.32668C42.5893 5.14354 42.9219 5.02117 43.2686 4.96659C43.6153 4.912 43.9694 4.92626 44.3106 5.00855C44.6518 5.09084 44.9734 5.23954 45.2571 5.44617C47.675 7.20487 49.8027 9.33131 51.5627 11.7482C51.9799 12.3217 52.1521 13.0375 52.0415 13.738C51.931 14.4385 51.5467 15.0664 50.9731 15.4835C50.3996 15.9007 49.6839 16.0729 48.9834 15.9623C48.2829 15.8518 47.655 15.4674 47.2379 14.8939C45.8072 12.9269 44.0775 11.1959 42.1114 9.76392C41.5393 9.34694 41.156 8.71992 41.0458 8.02057C40.9356 7.32122 41.1074 6.60672 41.5236 6.03398ZM3.40486 21.823C4.10434 21.9334 4.73138 22.317 5.1482 22.8895C5.56503 23.4619 5.73755 24.1765 5.62786 24.876C5.25003 27.279 5.25003 29.7263 5.62786 32.1293C5.73793 32.8294 5.56537 33.5446 5.14815 34.1175C4.73092 34.6904 4.1032 35.0741 3.40308 35.1841C2.70296 35.2942 1.98778 35.1217 1.41489 34.7044C0.841994 34.2872 0.458307 33.6595 0.348234 32.9594C-0.116078 30.0064 -0.116078 26.999 0.348234 24.046C0.402891 23.6993 0.525322 23.3667 0.708531 23.0674C0.891741 22.768 1.13214 22.5077 1.41599 22.3012C1.69985 22.0948 2.02159 21.9463 2.36285 21.8642C2.7041 21.7822 3.05818 21.7682 3.40486 21.823ZM53.6005 21.823C53.9472 21.7682 54.3012 21.7822 54.6425 21.8642C54.9838 21.9463 55.3055 22.0948 55.5893 22.3012C55.8732 22.5077 56.1136 22.768 56.2968 23.0674C56.48 23.3667 56.6025 23.6993 56.6571 24.046C57.1212 26.999 57.1212 30.0064 56.6571 32.9594C56.547 33.6595 56.1633 34.2872 55.5905 34.7044C55.0176 35.1217 54.3024 35.2942 53.6023 35.1841C52.9021 35.0741 52.2744 34.6904 51.8572 34.1175C51.44 33.5446 51.2674 32.8294 51.3775 32.1293C51.7555 29.7263 51.7555 27.279 51.3775 24.876C51.2678 24.1765 51.4403 23.4619 51.8571 22.8895C52.274 22.317 52.901 21.9334 53.6005 21.823ZM6.03398 41.5236C6.3177 41.317 6.63934 41.1683 6.98054 41.086C7.32174 41.0037 7.6758 40.9894 8.02251 41.044C8.36922 41.0986 8.70178 41.221 9.00119 41.4041C9.3006 41.5873 9.56099 41.8276 9.76748 42.1114C11.1981 44.0784 12.9279 45.8094 14.8939 47.2414C15.4472 47.6657 15.8126 48.2895 15.9123 48.9796C16.012 49.6696 15.8379 50.3713 15.4274 50.9348C15.0168 51.4984 14.4023 51.8791 13.7149 51.9957C13.0275 52.1124 12.3217 51.9557 11.7482 51.5592C9.33032 49.8005 7.20268 47.674 5.44261 45.2571C5.23616 44.9732 5.08769 44.6514 5.00568 44.31C4.92367 43.9687 4.90973 43.6145 4.96465 43.2678C5.01957 42.9211 5.14227 42.5886 5.32576 42.2893C5.50924 41.99 5.7499 41.7298 6.03398 41.5236ZM50.9714 41.5236C51.2552 41.7301 51.4955 41.9905 51.6787 42.2899C51.8618 42.5893 51.9842 42.9219 52.0388 43.2686C52.0933 43.6153 52.0791 43.9694 51.9968 44.3106C51.9145 44.6518 51.7658 44.9734 51.5592 45.2571C49.8006 47.6751 47.6741 49.8028 45.2571 51.5627C44.9731 51.7693 44.6513 51.9179 44.3099 52C43.9685 52.0822 43.6142 52.0963 43.2674 52.0415C42.9205 51.9868 42.5878 51.8643 42.2883 51.6809C41.9888 51.4976 41.7284 51.2571 41.5218 50.9731C41.3153 50.6892 41.1667 50.3673 41.0845 50.0259C41.0024 49.6845 40.9883 49.3302 41.043 48.9834C41.0978 48.6365 41.2203 48.3039 41.4036 48.0044C41.5869 47.7049 41.8274 47.4444 42.1114 47.2379C44.0784 45.8072 45.8094 44.0774 47.2414 42.1114C47.6584 41.5393 48.2854 41.156 48.9848 41.0458C49.6841 40.9356 50.3986 41.1074 50.9714 41.5236ZM21.823 53.6005C21.9334 52.901 22.317 52.274 22.8895 51.8571C23.4619 51.4403 24.1765 51.2678 24.876 51.3775C27.279 51.7555 29.7263 51.7555 32.1293 51.3775C32.476 51.323 32.83 51.3373 33.1711 51.4196C33.5122 51.5019 33.8338 51.6506 34.1175 51.8572C34.4012 52.0638 34.6414 52.3242 34.8244 52.6236C35.0074 52.9231 35.1296 53.2556 35.1841 53.6023C35.2386 53.9489 35.2243 54.3029 35.142 54.6441C35.0597 54.9852 34.911 55.3068 34.7044 55.5905C34.4978 55.8741 34.2374 56.1143 33.938 56.2973C33.6386 56.4804 33.306 56.6026 32.9594 56.6571C30.0064 57.1212 26.999 57.1212 24.046 56.6571C23.6993 56.6025 23.3667 56.48 23.0674 56.2968C22.768 56.1136 22.5077 55.8732 22.3012 55.5893C22.0948 55.3055 21.9463 54.9838 21.8642 54.6425C21.7822 54.3012 21.7682 53.9472 21.823 53.6005Z" fill="#464646"/>
</svg>
