<svg width="57" height="57" viewBox="0 0 57 57" fill="none" xmlns="http://www.w3.org/2000/svg">
<path d="M28.5 0C12.768 0 0 12.768 0 28.5C0 44.232 12.768 57 28.5 57C44.232 57 57 44.232 57 28.5C57 12.768 44.232 0 28.5 0ZM14.25 32.775C11.8845 32.775 9.975 30.8655 9.975 28.5C9.975 26.1345 11.8845 24.225 14.25 24.225C16.6155 24.225 18.525 26.1345 18.525 28.5C18.525 30.8655 16.6155 32.775 14.25 32.775ZM28.5 32.775C26.1345 32.775 24.225 30.8655 24.225 28.5C24.225 26.1345 26.1345 24.225 28.5 24.225C30.8655 24.225 32.775 26.1345 32.775 28.5C32.775 30.8655 30.8655 32.775 28.5 32.775ZM42.75 32.775C40.3845 32.775 38.475 30.8655 38.475 28.5C38.475 26.1345 40.3845 24.225 42.75 24.225C45.1155 24.225 47.025 26.1345 47.025 28.5C47.025 30.8655 45.1155 32.775 42.75 32.775Z" fill="#464646"/>
</svg>
