<svg width="57" height="57" viewBox="0 0 57 57" fill="none" xmlns="http://www.w3.org/2000/svg">
<path d="M53.1765 42.7639C52.4341 44.0261 51.3575 44.852 49.9469 45.2418C48.5363 45.6315 47.1907 45.4552 45.91 44.7128C44.6293 43.9704 43.794 42.8846 43.4043 41.4554C43.0145 40.0262 43.1908 38.6806 43.9332 37.4184C46.1977 33.4836 47.4598 29.2795 47.7196 24.8064C47.9795 20.3333 47.2463 16.0736 45.5202 12.0274C43.794 7.98111 41.2419 4.51026 37.8639 1.61478C39.6086 2.20873 41.2419 2.95116 42.7639 3.84207C46.1049 5.77239 48.9261 8.2688 51.2276 11.3313C53.5291 14.3938 55.1439 17.6605 56.072 21.1314C57 24.6022 57.232 28.2401 56.768 32.0451C56.304 35.85 55.1068 39.423 53.1765 42.7639ZM42.7639 53.1765C39.423 55.1068 35.85 56.304 32.0451 56.768C28.2401 57.232 24.6022 57 21.1314 56.072C17.6605 55.1439 14.3938 53.5291 11.3313 51.2276C8.2688 48.9261 5.77239 46.1049 3.84207 42.7639C3.09964 41.5018 2.91403 40.1561 3.28525 38.727C3.65646 37.2978 4.48242 36.212 5.76311 35.4696C7.0438 34.7271 8.39873 34.5508 9.82791 34.9406C11.2571 35.3303 12.3429 36.1563 13.0853 37.4184C14.7929 40.3881 16.9459 42.9495 19.5444 45.1026C22.1429 47.2556 24.9456 48.8611 27.9525 49.9191C30.9593 50.977 34.1239 51.5524 37.4463 51.6452C40.7686 51.738 43.9889 51.209 47.1071 50.0583C45.7336 51.2833 44.2859 52.3227 42.7639 53.1765ZM28.5093 10.691C23.9433 10.691 19.6651 11.7025 15.6745 13.7257C11.684 15.7488 8.37089 18.5143 5.73527 22.0223C3.09964 25.5303 1.35493 29.4744 0.50114 33.8548C0.167047 32.0358 0 30.254 0 28.5093C0 24.6486 0.75171 20.9551 2.25513 17.4285C3.75855 13.902 5.78167 10.8673 8.32449 8.32449C10.8673 5.78167 13.902 3.75855 17.4285 2.25513C20.9551 0.75171 24.6486 0 28.5093 0C29.9941 0 31.2563 0.5197 32.2957 1.5591C33.3351 2.5985 33.8548 3.86063 33.8548 5.34549C33.8548 6.83035 33.3351 8.09248 32.2957 9.13188C31.2563 10.1713 29.9941 10.691 28.5093 10.691Z" fill="#464646"/>
</svg>
