<svg width="57" height="57" viewBox="0 0 57 57" fill="none" xmlns="http://www.w3.org/2000/svg">
<path d="M50.6667 5.7H37.43C36.1 2.394 32.6167 0 28.5 0C24.3833 0 20.9 2.394 19.57 5.7H6.33333C2.85 5.7 0 8.265 0 11.4V51.3C0 54.435 2.85 57 6.33333 57H50.6667C54.15 57 57 54.435 57 51.3V11.4C57 8.265 54.15 5.7 50.6667 5.7ZM28.5 5.7C30.2417 5.7 31.6667 6.9825 31.6667 8.55C31.6667 10.1175 30.2417 11.4 28.5 11.4C26.7583 11.4 25.3333 10.1175 25.3333 8.55C25.3333 6.9825 26.7583 5.7 28.5 5.7ZM28.5 48.45L12.6667 34.2H22.1667V22.8H34.8333V34.2H44.3333L28.5 48.45Z" fill="#464646"/>
</svg>
