<?xml version="1.0" standalone="no"?>
<!DOCTYPE svg PUBLIC "-//W3C//DTD SVG 20010904//EN"
 "http://www.w3.org/TR/2001/REC-SVG-20010904/DTD/svg10.dtd">
<svg version="1.0" xmlns="http://www.w3.org/2000/svg"
 width="617.000000pt" height="143.000000pt" viewBox="0 0 617.000000 143.000000"
 preserveAspectRatio="xMidYMid meet">
<metadata>
Created by potrace 1.16, written by Peter Selinger 2001-2019
</metadata>
<g transform="translate(0.000000,143.000000) scale(0.100000,-0.100000)"
fill="#000000" stroke="none">
<path d="M704 1320 c-224 -34 -413 -189 -484 -396 -26 -73 -44 -197 -35 -241
l6 -34 31 18 c43 25 78 75 78 110 0 32 13 77 36 130 21 46 17 52 -11 18 -37
-43 -65 -100 -91 -180 -12 -38 -23 -61 -23 -49 -1 11 6 43 14 70 18 59 18 57
5 49 -12 -8 -13 -10 5 49 21 68 47 106 118 172 101 93 256 158 422 175 95 9
150 3 187 -22 14 -11 31 -19 37 -19 6 0 11 -3 11 -8 0 -4 15 -14 33 -21 38
-17 146 -124 167 -166 8 -17 21 -38 29 -47 8 -10 11 -18 8 -18 -3 0 1 -19 9
-42 8 -24 18 -77 22 -118 6 -69 9 -75 31 -78 22 -4 23 -1 16 30 -4 18 -8 47
-10 63 -2 17 -8 42 -14 58 -6 15 -8 27 -6 27 3 0 -8 25 -25 56 -16 31 -30 67
-30 80 0 13 -4 24 -9 24 -5 0 -14 12 -20 28 -6 15 -27 44 -46 64 -19 20 -35
41 -35 47 0 6 -6 11 -13 11 -13 0 -57 44 -57 56 0 3 -11 20 -25 39 -20 26 -39
36 -88 48 -82 20 -180 27 -243 17z"/>
<path d="M3200 1192 c0 -5 9 -17 20 -27 11 -10 20 -27 20 -39 0 -20 0 -20 -16
2 -22 31 -73 57 -87 43 -8 -8 -8 -11 1 -11 14 0 92 -69 92 -81 0 -5 -27 -9
-60 -9 -33 0 -60 -4 -60 -10 0 -6 33 -10 80 -10 l80 0 0 -70 c0 -38 -4 -70 -9
-70 -12 0 -64 70 -57 77 3 4 17 1 31 -5 22 -10 25 -9 25 7 0 29 -52 37 -89 15
-62 -37 -59 -118 5 -149 27 -13 42 -14 65 -6 26 9 29 8 29 -10 0 -10 7 -19 15
-19 12 0 15 22 17 113 l3 112 103 3 102 3 1 -38 c3 -119 -7 -143 -62 -143 -30
0 -59 31 -59 62 0 10 10 28 21 39 16 16 29 20 56 16 28 -5 34 -3 31 11 -2 12
-15 18 -41 20 -30 3 -43 -2 -67 -27 -38 -38 -39 -78 -3 -121 25 -30 30 -32 75
-28 36 4 48 2 48 -8 0 -8 9 -14 20 -14 18 0 20 7 20 68 0 54 4 72 18 85 25 23
58 21 82 -3 24 -24 25 -48 4 -79 -13 -18 -24 -22 -50 -19 -28 3 -34 1 -34 -14
0 -12 8 -18 23 -19 41 -2 52 2 80 32 37 40 36 81 -3 121 -28 27 -36 30 -75 25
-39 -4 -45 -2 -45 14 0 17 9 19 90 19 53 0 90 4 90 10 0 6 -83 10 -227 10
l-228 0 -1 24 c-3 37 -37 101 -56 104 -10 2 -18 -1 -18 -6z"/>
<path d="M4695 1171 c-3 -6 5 -13 19 -17 13 -3 38 -23 55 -45 l32 -39 -140 0
c-123 0 -141 2 -153 18 -23 32 -62 52 -102 52 -41 0 -100 -30 -110 -55 -4 -12
-25 -15 -93 -15 -83 0 -88 1 -118 30 -33 32 -86 47 -127 37 -32 -8 -117 -87
-95 -87 15 0 17 -14 17 -115 0 -96 3 -115 15 -115 12 0 15 19 15 115 l0 115
145 0 c138 0 145 -1 145 -20 0 -13 -9 -22 -25 -26 -13 -3 -30 -12 -36 -20 -10
-12 -14 -12 -28 -1 -55 48 -151 7 -151 -65 0 -38 35 -85 69 -93 37 -8 71 1 71
20 0 10 -9 12 -34 8 -39 -6 -76 22 -76 57 0 23 42 70 62 70 26 0 59 -31 56
-52 -5 -34 17 -31 33 4 9 21 22 34 37 36 21 3 22 0 22 -72 0 -61 3 -76 15 -76
12 0 15 19 15 115 l0 115 30 0 30 0 0 -115 c0 -96 3 -115 15 -115 12 0 15 19
15 115 l0 116 93 -3 92 -3 3 -76 c2 -62 -1 -80 -16 -99 -14 -18 -25 -22 -45
-16 -62 15 -51 96 13 96 19 0 30 5 30 14 0 34 -70 27 -100 -9 -24 -29 -18 -84
14 -111 30 -26 56 -30 89 -12 34 17 46 39 47 81 0 33 3 37 25 37 24 0 25 -2
25 -65 0 -50 3 -65 15 -65 12 0 15 22 17 113 l3 112 88 3 c82 3 87 2 87 -18 0
-16 -6 -20 -34 -20 -81 0 -119 -111 -55 -164 17 -14 42 -26 55 -26 37 0 78 25
92 55 16 34 15 35 -8 35 -11 0 -20 -6 -20 -14 0 -18 -38 -46 -62 -46 -28 0
-58 37 -58 69 0 52 63 79 102 44 17 -15 18 -14 18 35 l0 52 96 0 c85 0 95 -2
92 -17 -2 -13 -15 -18 -43 -21 -80 -5 -79 -74 1 -80 21 -2 44 -8 51 -14 36
-30 -15 -91 -57 -68 -11 6 -25 22 -30 36 -10 25 -24 31 -34 15 -10 -15 12 -59
34 -71 39 -21 81 -15 107 14 46 53 24 103 -50 114 -64 9 -64 26 1 30 50 3 52
4 52 33 0 22 5 29 20 29 11 0 20 5 20 10 0 6 -52 10 -135 10 -104 0 -135 3
-135 13 0 17 -70 83 -97 91 -12 4 -24 2 -28 -3z"/>
<path d="M1208 1137 c18 -18 32 -37 32 -42 0 -4 6 -16 14 -24 7 -9 21 -41 32
-71 10 -30 23 -62 29 -70 56 -74 65 -318 16 -439 -48 -120 -145 -228 -259
-290 -32 -17 -52 -31 -47 -31 27 0 128 71 190 134 219 222 232 562 30 809 -25
31 -51 57 -58 57 -6 0 3 -15 21 -33z"/>
<path d="M1580 1060 c0 -6 26 -10 58 -10 68 0 92 -18 92 -68 0 -55 -50 -80
-96 -47 -20 13 -34 11 -34 -5 0 -16 124 -110 143 -110 20 1 19 4 -12 31 l-34
31 29 23 c20 16 40 23 64 22 35 -2 35 -2 38 -54 2 -38 7 -53 18 -53 11 0 14
21 14 115 l0 115 120 0 c120 0 120 0 120 -24 0 -23 -4 -24 -76 -28 -65 -3 -79
-7 -95 -27 -58 -71 33 -169 108 -116 36 25 42 105 8 105 -11 0 -13 -8 -9 -30
8 -37 -9 -60 -45 -60 -34 0 -51 17 -51 50 0 40 18 50 92 50 l67 0 3 -72 c2
-60 6 -73 21 -76 15 -3 17 7 17 113 l0 116 82 -3 c78 -3 83 -4 98 -30 30 -55
-29 -108 -87 -77 -15 8 -27 9 -33 3 -13 -13 126 -124 154 -124 18 1 14 6 -22
37 l-43 36 33 27 c30 25 33 33 31 79 l-1 51 34 0 34 0 0 -115 c0 -96 3 -115
15 -115 12 0 15 19 15 115 l0 116 93 -3 c74 -2 92 -6 92 -18 0 -11 -13 -16
-45 -18 -52 -4 -70 -16 -70 -47 0 -26 17 -35 66 -35 45 0 74 -16 74 -39 0 -38
-66 -42 -108 -6 -23 19 -32 22 -40 12 -8 -9 7 -27 58 -70 38 -31 74 -57 80
-57 15 0 12 21 -7 42 -9 11 -11 18 -5 18 20 0 52 39 52 63 0 34 -30 57 -76 57
-21 0 -45 4 -53 9 -26 16 0 31 55 31 54 0 54 0 54 30 l0 31 118 -3 c109 -3
117 -4 117 -23 0 -18 -8 -20 -77 -23 -43 -2 -78 -7 -78 -12 0 -6 8 -10 18 -10
53 0 82 -68 44 -103 -22 -20 -63 -22 -80 -5 -9 9 -12 6 -12 -14 0 -21 6 -28
28 -33 78 -17 141 65 108 138 -8 16 -5 18 20 15 29 -3 29 -3 32 -80 2 -60 6
-78 17 -78 12 0 15 21 15 115 0 108 1 115 20 115 11 0 20 5 20 10 0 7 -240 10
-700 10 -460 0 -700 -3 -700 -10z"/>
<path d="M1616 679 c-48 -38 -24 -105 44 -124 58 -15 80 -28 80 -46 0 -42 -69
-51 -98 -14 -22 27 -62 34 -62 11 0 -8 10 -27 23 -41 43 -50 151 -43 176 11
27 60 3 97 -80 120 -51 14 -60 20 -57 38 4 30 58 34 83 6 21 -24 55 -27 55 -5
0 9 -11 27 -25 40 -32 33 -100 35 -139 4z"/>
<path d="M1840 595 c0 -105 0 -107 30 -137 28 -28 35 -30 81 -26 82 8 93 26
94 155 0 105 -1 108 -22 111 -23 3 -23 1 -23 -96 0 -83 -3 -102 -18 -115 -24
-22 -55 -21 -75 1 -12 13 -17 42 -19 112 -3 90 -4 95 -25 98 -23 3 -23 2 -23
-103z"/>
<path d="M2110 570 c0 -123 1 -130 20 -130 18 0 20 7 20 80 0 44 3 80 8 80 4
-1 29 -37 55 -80 39 -65 52 -80 72 -80 l25 0 0 130 c0 123 -1 130 -20 130 -18
0 -20 -7 -20 -85 0 -47 -3 -85 -7 -85 -5 0 -24 28 -43 62 -48 84 -68 108 -91
108 -18 0 -19 -8 -19 -130z"/>
<path d="M2378 693 c0 -5 -2 -63 -2 -130 -2 -122 -2 -123 21 -123 21 0 23 5
23 49 0 81 37 81 92 1 26 -39 39 -50 61 -50 15 0 27 3 27 6 0 4 -16 29 -36 56
-19 28 -34 51 -32 51 30 15 43 28 51 50 12 38 -10 80 -48 88 -43 9 -155 10
-157 2z"/>
<path d="M2765 675 c-48 -47 -22 -96 65 -124 59 -19 76 -45 44 -68 -27 -20
-52 -16 -80 12 -28 28 -70 35 -60 9 3 -9 6 -20 6 -25 0 -17 64 -49 98 -49 39
0 87 23 96 45 11 31 6 72 -11 88 -10 8 -43 24 -73 34 -42 14 -55 23 -55 38 0
29 58 33 82 6 22 -27 53 -27 53 -2 0 57 -119 83 -165 36z"/>
<path d="M2997 693 c-4 -3 -7 -62 -7 -130 l0 -123 100 0 c93 0 100 1 100 20 0
18 -7 20 -75 20 l-75 0 0 35 0 35 65 0 c58 0 65 2 65 20 0 18 -7 20 -66 20
l-65 0 3 33 3 32 68 3 c59 3 67 5 67 22 0 18 -7 20 -88 20 -49 0 -92 -3 -95
-7z"/>
<path d="M3348 694 c-5 -4 -8 -63 -8 -131 l0 -123 90 0 c79 0 92 3 110 22 26
28 25 66 -2 95 -16 17 -19 26 -11 31 22 14 25 57 6 81 -16 19 -31 23 -98 28
-44 3 -83 2 -87 -3z"/>
<path d="M3681 682 c-11 -20 -91 -229 -91 -237 0 -3 11 -5 24 -5 18 0 27 8 35
31 10 29 12 30 63 27 46 -3 54 -6 66 -30 9 -20 21 -28 39 -28 16 0 23 4 20 13
-97 241 -100 247 -123 247 -13 0 -28 -8 -33 -18z"/>
<path d="M3880 571 c0 -124 1 -131 20 -131 18 0 20 7 20 80 0 44 3 80 8 80 4
-1 29 -37 55 -80 39 -65 52 -80 72 -80 l25 0 0 130 c0 123 -1 130 -20 130 -18
0 -20 -7 -20 -85 0 -47 -3 -85 -7 -85 -5 1 -31 38 -58 83 -35 58 -57 83 -73
85 -22 3 -22 2 -22 -127z"/>
<path d="M4150 570 c0 -123 1 -130 20 -130 16 0 20 7 20 33 0 33 27 77 48 77
6 0 25 -25 42 -55 27 -47 36 -55 61 -55 29 0 29 0 15 28 -8 15 -29 47 -45 72
-17 25 -31 49 -31 55 0 5 21 31 47 57 l47 48 -31 0 c-25 0 -42 -11 -84 -55
-29 -30 -56 -55 -61 -55 -4 0 -8 25 -8 55 0 48 -2 55 -20 55 -19 0 -20 -7 -20
-130z"/>
<path d="M4847 693 c-4 -3 -7 -62 -7 -130 l0 -123 25 0 c25 0 25 1 26 93 0
102 7 97 35 -25 15 -65 17 -69 42 -66 24 3 28 10 48 91 12 49 25 91 28 94 3 4
6 -37 6 -90 0 -90 1 -97 20 -97 19 0 20 7 20 131 l0 130 -37 -3 -38 -3 -19
-82 c-11 -46 -23 -83 -26 -83 -4 0 -17 38 -29 85 -23 85 -23 85 -55 85 -18 0
-36 -3 -39 -7z"/>
<path d="M5240 681 c0 -16 8 -20 38 -23 l37 -3 0 -108 c0 -104 1 -107 22 -107
21 0 22 4 25 108 l3 107 38 3 c29 3 37 7 37 23 0 18 -8 19 -100 19 -92 0 -100
-1 -100 -19z"/>
<path d="M5480 570 l0 -130 101 0 c90 0 100 2 97 18 -3 14 -16 18 -76 20 l-72
3 0 34 0 35 65 0 c58 0 65 2 65 20 0 18 -7 20 -66 20 l-65 0 3 33 3 32 68 3
c59 3 67 5 67 22 0 18 -7 20 -95 20 l-95 0 0 -130z"/>
<path d="M5730 571 l0 -131 76 0 c70 0 78 2 105 29 28 29 35 56 30 121 -6 76
-38 101 -138 108 l-73 5 0 -132z m144 69 c16 -16 23 -87 12 -121 -10 -32 -14
-34 -58 -37 l-48 -3 0 92 0 92 43 -7 c23 -4 46 -11 51 -16z"/>
<path d="M4520 565 l0 -125 91 0 c81 0 90 2 87 18 -3 14 -16 18 -71 20 l-68 3
3 104 c3 103 3 105 -19 105 -23 0 -23 -2 -23 -125z"/>
</g>
</svg>
